<svg width="100" height="13" viewBox="0 0 100 13" fill="none" xmlns="http://www.w3.org/2000/svg">
<path d="M6.968 10.696V12H0.464V0.535999H2.008V10.696H6.968ZM15.7548 10.736L15.7468 12H8.68275V0.535999H15.7468V1.8H10.2348V5.608H14.6988V6.824H10.2348V10.736H15.7548ZM24.0051 7.744L22.2051 3.08C22.1518 2.94133 22.0958 2.78133 22.0371 2.6C21.9785 2.41333 21.9225 2.216 21.8691 2.008C21.7571 2.44 21.6425 2.8 21.5251 3.088L19.7251 7.744H24.0051ZM27.2371 12H26.0371C25.8985 12 25.7865 11.9653 25.7011 11.896C25.6158 11.8267 25.5518 11.7387 25.5091 11.632L24.4371 8.864H19.2931L18.2211 11.632C18.1891 11.728 18.1278 11.8133 18.0371 11.888C17.9465 11.9627 17.8345 12 17.7011 12H16.5011L21.0851 0.535999H22.6531L27.2371 12ZM31.9213 6.088C32.3693 6.088 32.7639 6.03467 33.1053 5.928C33.4519 5.816 33.7399 5.66133 33.9693 5.464C34.2039 5.26133 34.3799 5.02133 34.4973 4.744C34.6146 4.46667 34.6733 4.16 34.6733 3.824C34.6733 3.14133 34.4493 2.62667 34.0013 2.28C33.5533 1.93333 32.8813 1.76 31.9852 1.76H30.2893V6.088H31.9213ZM37.2173 12H35.8413C35.5586 12 35.3506 11.8907 35.2173 11.672L32.2413 7.576C32.1506 7.448 32.0519 7.35733 31.9453 7.304C31.8439 7.24533 31.6839 7.216 31.4653 7.216H30.2893V12H28.7453V0.535999H31.9852C32.7106 0.535999 33.3373 0.610666 33.8653 0.759999C34.3933 0.904 34.8279 1.11467 35.1693 1.392C35.5159 1.66933 35.7719 2.00533 35.9373 2.4C36.1026 2.78933 36.1853 3.22667 36.1853 3.712C36.1853 4.11733 36.1213 4.496 35.9933 4.848C35.8653 5.2 35.6786 5.51733 35.4333 5.8C35.1933 6.07733 34.8973 6.31467 34.5453 6.512C34.1986 6.70933 33.8039 6.85867 33.3613 6.96C33.5586 7.072 33.7293 7.23467 33.8733 7.448L37.2173 12ZM48.0645 0.535999V12H47.2885C47.1658 12 47.0618 11.9787 46.9765 11.936C46.8965 11.8933 46.8165 11.8213 46.7365 11.72L40.1045 3.08C40.1152 3.21333 40.1232 3.344 40.1285 3.472C40.1338 3.6 40.1365 3.72 40.1365 3.832V12H38.7765V0.535999H39.5765C39.6458 0.535999 39.7045 0.541333 39.7525 0.551999C39.8005 0.557333 39.8432 0.570666 39.8805 0.591999C39.9178 0.607999 39.9552 0.634666 39.9925 0.672C40.0298 0.704 40.0698 0.746666 40.1125 0.799999L46.7445 9.432C46.7338 9.29333 46.7232 9.16 46.7125 9.032C46.7072 8.89867 46.7045 8.77333 46.7045 8.656V0.535999H48.0645ZM67.017 0.535999V12H65.657V3.576C65.657 3.464 65.6597 3.344 65.665 3.216C65.6757 3.088 65.6863 2.95733 65.697 2.824L61.761 9.992C61.6383 10.232 61.4517 10.352 61.201 10.352H60.977C60.7263 10.352 60.5397 10.232 60.417 9.992L56.401 2.792C56.433 3.07467 56.449 3.336 56.449 3.576V12H55.089V0.535999H56.233C56.3717 0.535999 56.4783 0.549333 56.553 0.575999C56.6277 0.602666 56.6997 0.677333 56.769 0.799999L60.729 7.856C60.793 7.984 60.8543 8.11733 60.913 8.256C60.977 8.39467 61.0357 8.536 61.089 8.68C61.1423 8.536 61.1983 8.39467 61.257 8.256C61.3157 8.112 61.3797 7.976 61.449 7.848L65.337 0.799999C65.401 0.677333 65.4703 0.602666 65.545 0.575999C65.625 0.549333 65.7343 0.535999 65.873 0.535999H67.017ZM80.5404 6.272C80.5404 7.13067 80.4044 7.92 80.1324 8.64C79.8604 9.35467 79.4764 9.97067 78.9804 10.488C78.4844 11.0053 77.887 11.408 77.1884 11.696C76.495 11.9787 75.727 12.12 74.8844 12.12C74.0417 12.12 73.2737 11.9787 72.5804 11.696C71.887 11.408 71.2924 11.0053 70.7964 10.488C70.3004 9.97067 69.9164 9.35467 69.6444 8.64C69.3724 7.92 69.2364 7.13067 69.2364 6.272C69.2364 5.41333 69.3724 4.62667 69.6444 3.912C69.9164 3.192 70.3004 2.57333 70.7964 2.056C71.2924 1.53333 71.887 1.128 72.5804 0.839999C73.2737 0.551999 74.0417 0.407999 74.8844 0.407999C75.727 0.407999 76.495 0.551999 77.1884 0.839999C77.887 1.128 78.4844 1.53333 78.9804 2.056C79.4764 2.57333 79.8604 3.192 80.1324 3.912C80.4044 4.62667 80.5404 5.41333 80.5404 6.272ZM78.9484 6.272C78.9484 5.568 78.8524 4.936 78.6604 4.376C78.4684 3.816 78.1964 3.344 77.8444 2.96C77.4924 2.57067 77.0657 2.272 76.5644 2.064C76.063 1.856 75.503 1.752 74.8844 1.752C74.271 1.752 73.7137 1.856 73.2124 2.064C72.711 2.272 72.2817 2.57067 71.9244 2.96C71.5724 3.344 71.3004 3.816 71.1084 4.376C70.9164 4.936 70.8204 5.568 70.8204 6.272C70.8204 6.976 70.9164 7.608 71.1084 8.168C71.3004 8.72267 71.5724 9.19467 71.9244 9.584C72.2817 9.968 72.711 10.264 73.2124 10.472C73.7137 10.6747 74.271 10.776 74.8844 10.776C75.503 10.776 76.063 10.6747 76.5644 10.472C77.0657 10.264 77.4924 9.968 77.8444 9.584C78.1964 9.19467 78.4684 8.72267 78.6604 8.168C78.8524 7.608 78.9484 6.976 78.9484 6.272ZM85.9369 6.088C86.3849 6.088 86.7795 6.03467 87.1209 5.928C87.4675 5.816 87.7555 5.66133 87.9849 5.464C88.2195 5.26133 88.3955 5.02133 88.5129 4.744C88.6302 4.46667 88.6889 4.16 88.6889 3.824C88.6889 3.14133 88.4649 2.62667 88.0169 2.28C87.5689 1.93333 86.8969 1.76 86.0009 1.76H84.3049V6.088H85.9369ZM91.2329 12H89.8569C89.5742 12 89.3662 11.8907 89.2329 11.672L86.2569 7.576C86.1662 7.448 86.0675 7.35733 85.9609 7.304C85.8595 7.24533 85.6995 7.216 85.4809 7.216H84.3049V12H82.7609V0.535999H86.0009C86.7262 0.535999 87.3529 0.610666 87.8809 0.759999C88.4089 0.904 88.8435 1.11467 89.1849 1.392C89.5315 1.66933 89.7875 2.00533 89.9529 2.4C90.1182 2.78933 90.2009 3.22667 90.2009 3.712C90.2009 4.11733 90.1369 4.496 90.0089 4.848C89.8809 5.2 89.6942 5.51733 89.4489 5.8C89.2089 6.07733 88.9129 6.31467 88.5609 6.512C88.2142 6.70933 87.8195 6.85867 87.3769 6.96C87.5742 7.072 87.7449 7.23467 87.8889 7.448L91.2329 12ZM99.8641 10.736L99.8561 12H92.7921V0.535999H99.8561V1.8H94.3441V5.608H98.8081V6.824H94.3441V10.736H99.8641Z" fill="#006DFE"/>
</svg>
